<?xml version="1.0" standalone="no"?><!DOCTYPE svg PUBLIC "-//W3C//DTD SVG 1.1//EN" "http://www.w3.org/Graphics/SVG/1.1/DTD/svg11.dtd"><svg t="1586337776757" class="icon" viewBox="0 0 1024 1024" version="1.1" xmlns="http://www.w3.org/2000/svg" p-id="9415" xmlns:xlink="http://www.w3.org/1999/xlink"><defs><style type="text/css"></style></defs><path d="M0 512C0 229.226667 229.226667 0 512 0s512 229.226667 512 512-229.226667 512-512 512S0 794.773333 0 512z" fill="#0077B5" p-id="9416"></path><path d="M369.472 316.224c0 33.472-25.194667 60.245333-65.664 60.245333h-0.746667c-38.933333 0-64.128-26.773333-64.128-60.245333C238.933333 282.026667 264.874667 256 304.576 256s64.149333 26.026667 64.896 60.224z m-7.637333 107.84V772.693333h-116.032V424.064h116.032zM780.266667 772.693333v-199.893333c0-107.093333-57.237333-156.928-133.589334-156.928-61.610667 0-89.173333 33.834667-104.576 57.578667v-49.386667h-116.053333c1.536 32.725333 0 348.629333 0 348.629333h116.053333v-194.709333c0-10.410667 0.746667-20.8 3.818667-28.266667 8.384-20.821333 27.477333-42.368 59.541333-42.368 41.984 0 58.794667 31.978667 58.794667 78.826667v186.517333h116.010667z" fill="#FFFFFF" p-id="9417"></path></svg>